HIERARCHY
ROOT Hips
{
  OFFSET 52.5501 96.2303 10.502
  CHANNELS 6 Xposition Yposition Zposition Zrotation Xrotation Yrotation
  JOINT spine
  {
    OFFSET 0 8.13249 0.467659
    CHANNELS 3 Zrotation Xrotation Yrotation
    JOINT spine1
    {
      OFFSET 0 10.3498 0
      CHANNELS 3 Zrotation Xrotation Yrotation
      JOINT spine2
      {
        OFFSET 0 9.91699 0
        CHANNELS 3 Zrotation Xrotation Yrotation
        JOINT Neck
        {
          OFFSET 0 25.461 1.2139
          CHANNELS 3 Zrotation Xrotation Yrotation
          JOINT Head
          {
            OFFSET 0 7.69245 0
            CHANNELS 3 Zrotation Xrotation Yrotation
            End Site
            {
              OFFSET 0 18.62 -6.14063
            }
          }
        }
        JOINT RightShoulder
        {
          OFFSET -4.17575 10.7096 -0.581445
          CHANNELS 3 Zrotation Xrotation Yrotation
          JOINT RightArm
          {
            OFFSET 0 14.0466 0
            CHANNELS 3 Zrotation Xrotation Yrotation
            JOINT RightArmRoll
            {
              OFFSET 0 7.09099 0
              CHANNELS 3 Zrotation Xrotation Yrotation
              JOINT RightForeArm
              {
                OFFSET 0 20.6535 0
                CHANNELS 3 Zrotation Xrotation Yrotation
                JOINT RightForeArmRoll
                {
                  OFFSET 0 7.95718 0
                  CHANNELS 3 Zrotation Xrotation Yrotation
                  JOINT RightHand
                  {
                    OFFSET 0 15.9683 0
                    CHANNELS 3 Zrotation Xrotation Yrotation
                    End Site
                    {
                      OFFSET 0 0 0
                    }
                  }
                }
              }
            }
          }
        }
        JOINT LeftShoulder
        {
          OFFSET 4.17575 10.7096 -0.581445
          CHANNELS 3 Zrotation Xrotation Yrotation
          JOINT LeftArm
          {
            OFFSET 0 14.0466 0
            CHANNELS 3 Zrotation Xrotation Yrotation
            JOINT LeftArmRoll
            {
              OFFSET 0 7.09098 0
              CHANNELS 3 Zrotation Xrotation Yrotation
              JOINT LeftForeArm
              {
                OFFSET 0 20.6535 0
                CHANNELS 3 Zrotation Xrotation Yrotation
                JOINT LeftForeArmRoll
                {
                  OFFSET 0 7.95718 0
                  CHANNELS 3 Zrotation Xrotation Yrotation
                  JOINT LeftHand
                  {
                    OFFSET 0 15.9683 0
                    CHANNELS 3 Zrotation Xrotation Yrotation
                    End Site
                    {
                      OFFSET 0 0 0
                    }
                  }
                }
              }
            }
          }
        }
      }
    }
  }
  JOINT RightUpLeg
  {
    OFFSET -7.20834 -1.32182 -1.10884
    CHANNELS 3 Zrotation Xrotation Yrotation
    JOINT RightUpLegRoll
    {
      OFFSET 0 18.7238 0
      CHANNELS 3 Zrotation Xrotation Yrotation
      JOINT RightLeg
      {
        OFFSET 0 -23.1866 0
        CHANNELS 3 Zrotation Xrotation Yrotation
        JOINT RightLegRoll
        {
          OFFSET 0 23.2624 0
          CHANNELS 3 Zrotation Xrotation Yrotation
          JOINT RightFoot
          {
            OFFSET 0 19.3621 0
            CHANNELS 3 Zrotation Xrotation Yrotation
            JOINT RightToeBase
            {
              OFFSET 0 16.1857 0
              CHANNELS 3 Zrotation Xrotation Yrotation
              End Site
              {
                OFFSET 0.00686052 7.83863 -0.903522
              }
            }
          }
        }
      }
    }
  }
  JOINT LeftUpLeg
  {
    OFFSET 7.20834 -1.32182 -1.10884
    CHANNELS 3 Zrotation Xrotation Yrotation
    JOINT LeftUpLegRoll
    {
      OFFSET 0 18.7239 0
      CHANNELS 3 Zrotation Xrotation Yrotation
      JOINT LeftLeg
      {
        OFFSET 0 23.1865 0
        CHANNELS 3 Zrotation Xrotation Yrotation
        JOINT LeftLegRoll
        {
          OFFSET 0 23.4775 0
          CHANNELS 3 Zrotation Xrotation Yrotation
          JOINT LeftFoot
          {
            OFFSET 0 19.147 0
            CHANNELS 3 Zrotation Xrotation Yrotation
            JOINT LeftToeBase
            {
              OFFSET 0 16.1857 0
              CHANNELS 3 Zrotation Xrotation Yrotation
              End Site
              {
                OFFSET -0.0307459 7.83863 -0.903522
              }
            }
          }
        }
      }
    }
  }
}
MOTION
Frames: 6
Frame Time: 0.00208333
52.3429 96.1925 9.62724 -1.14021 -3.77255 0.175141 0.476878 -1.26574 0.0876148 0.978307 1.47151 0.121717 0.977539 3.11645 0.105175 -1.1629 10.5748 -3.1249 2.86513 -3.11968 -3.05956 61.3411 -9.3746 -5.85614 109.063 18.3966 19.239 7.49639e-007 4.59763e-008 -4.65487e-006 7.49414 1.76748 -0.766635 -7.41355e-006 8.86243e-008 -3 8.02922 -4.95146 0.697698 -63.882 -6.89061 4.4793 -107.305 19.1403 -10.3545 -1.62623e-005 -1.69356e-006 3.53502e-006 -7.70715 0.0656946 1.28302 -2.6851e-005 1.92794e-006 3.04928 -8.02916 -4.95142 -0.69766 173.992 0.455313 3.38945 -180 7.01551e-015 178.94 178.284 9.23913 179.732 -7.80079e-007 -1.62304e-006 0.0201532 -17.2057 67.9194 19.462 8.13654 25.2334 -3.4867 -172.574 0.658642 -1.84901 4.5067e-006 -1.99009e-005 -0.944999 -0.788763 -12.7114 0.541526 -6.42456e-007 1.24004e-006 -0.167408 19.2728 71.2685 -22.4907 -8.13664 25.2349 3.4848 
52.3446 96.2032 9.62641 -1.13964 -3.77145 0.176772 0.476878 -1.26568 0.0883624 0.977273 1.47144 0.121816 0.976494 3.11638 0.105306 -1.15465 10.5755 -3.12687 2.85485 -3.1271 -3.06062 61.3461 -9.37252 -5.85496 109.062 18.4021 19.2441 7.49639e-007 4.59763e-008 -4.65487e-006 7.4894 1.75605 -0.765 -7.41355e-006 8.86243e-008 -3 8.02922 -4.95146 0.697698 -63.8779 -6.89327 4.48065 -107.309 19.1331 -10.348 -1.62623e-005 -1.69356e-006 3.53502e-006 -7.71099 0.0656941 1.28097 -2.68509e-005 1.92794e-006 3.0492 -8.02916 -4.95142 -0.69766 173.996 0.441441 3.38233 -180 7.01551e-015 178.94 178.291 9.20713 179.732 -7.80079e-007 -1.62304e-006 0.0189294 -17.1916 67.9077 19.4528 8.13654 25.2334 -3.4867 -172.576 0.650008 -1.84851 4.5067e-006 -1.99009e-005 -0.945019 -0.789417 -12.6914 0.540791 -6.42456e-007 1.24004e-006 -0.16741 19.2685 71.2588 -22.4808 -8.13664 25.2349 3.4848 
52.3501 96.1826 9.62955 -1.13911 -3.77022 0.178396 0.476878 -1.26563 0.0891337 0.976222 1.47132 0.121891 0.97543 3.11626 0.105414 -1.14601 10.5763 -3.12893 2.84422 -3.13467 -3.06172 61.3512 -9.37047 -5.8538 109.06 18.4079 19.2495 7.49639e-007 4.59763e-008 -4.65487e-006 7.48444 1.74404 -0.763283 -7.41355e-006 8.86243e-008 -3 8.02922 -4.95146 0.697698 -63.8736 -6.89609 4.48207 -107.313 19.126 -10.3416 -1.62623e-005 -1.69356e-006 3.53502e-006 -7.7147 0.0656935 1.27896 -2.68509e-005 1.92794e-006 3.04914 -8.02916 -4.95142 -0.69766 174.001 0.427189 3.37492 -180 7.01551e-015 178.94 178.298 9.17402 179.731 -7.80079e-007 -1.62304e-006 0.0176607 -17.1772 67.8957 19.4433 8.13654 25.2334 -3.4867 -172.577 0.64118 -1.84801 4.5067e-006 -1.99009e-005 -0.945034 -0.790073 -12.6708 0.540027 -6.42456e-007 1.24004e-006 -0.167412 19.2641 71.2488 -22.4707 -8.13664 25.2349 3.4848 
52.3469 96.1835 9.62922 -1.13861 -3.76892 0.180016 0.476878 -1.2656 0.0899215 0.975157 1.47117 0.121948 0.974354 3.1161 0.105505 -1.13708 10.5771 -3.13105 2.83335 -3.14234 -3.06285 61.3563 -9.36845 -5.85265 109.059 18.4138 19.2549 7.49639e-007 4.59763e-008 -4.65487e-006 7.47933 1.73161 -0.761509 -7.41355e-006 8.86243e-008 -3 8.02922 -4.95146 0.697698 -63.8691 -6.89902 4.48355 -107.318 19.119 -10.3353 -1.62623e-005 -1.69356e-006 3.53502e-006 -7.71832 0.0656929 1.27697 -2.68509e-005 1.92794e-006 3.04908 -8.02916 -4.95142 -0.69766 174.005 0.412671 3.3673 -180 7.01551e-015 178.94 178.306 9.14014 179.731 -7.80079e-007 -1.62304e-006 0.0163606 -17.1624 67.8833 19.4336 8.13654 25.2334 -3.4867 -172.579 0.632216 -1.8475 4.5067e-006 -1.99009e-005 -0.945046 -0.790732 -12.6498 0.539243 -6.42456e-007 1.24004e-006 -0.167415 19.2596 71.2386 -22.4603 -8.13664 25.2349 3.4848 
52.3422 96.1923 9.62394 -1.13813 -3.76756 0.181633 0.476878 -1.26557 0.0907187 0.974086 1.471 0.121996 0.97327 3.11593 0.105587 -1.128 10.578 -3.1332 2.82234 -3.15006 -3.06398 61.3614 -9.36643 -5.85152 109.058 18.4199 19.2605 7.49639e-007 4.59763e-008 -4.65487e-006 7.47412 1.71896 -0.759703 -7.41355e-006 8.86243e-008 -3 8.02922 -4.95146 0.697698 -63.8644 -6.90201 4.48506 -107.322 19.112 -10.3291 -1.62623e-005 -1.69356e-006 3.53502e-006 -7.72189 0.0656924 1.27499 -2.68509e-005 1.92794e-006 3.04903 -8.02916 -4.95142 -0.69766 174.01 0.398 3.35957 -180 7.01551e-015 178.94 178.313 9.10583 179.73 -7.80079e-007 -1.62304e-006 0.0150426 -17.1475 67.8708 19.4239 8.13654 25.2334 -3.4867 -172.58 0.623175 -1.84699 4.5067e-006 -1.99009e-005 -0.945057 -0.791391 -12.6285 0.538448 -6.42456e-007 1.24004e-006 -0.167418 19.255 71.2282 -22.4498 -8.13664 25.2349 3.4848 
52.3509 96.1858 9.62507 -1.13765 -3.76619 0.18325 0.476878 -1.26555 0.0915183 0.973013 1.47082 0.122042 0.972184 3.11575 0.105667 -1.11887 10.5789 -3.13536 2.81129 -3.1578 -3.06512 61.3666 -9.36443 -5.85038 109.057 18.426 19.266 7.49639e-007 4.59763e-008 -4.65487e-006 7.4689 1.70624 -0.757888 -7.41355e-006 8.86243e-008 -3 8.02922 -4.95146 0.697698 -63.8597 -6.90503 4.48658 -107.327 19.1051 -10.3229 -1.62623e-005 -1.69356e-006 3.53502e-006 -7.72545 0.0656918 1.27302 -2.68509e-005 1.92794e-006 3.04898 -8.02916 -4.95142 -0.69766 174.015 0.383291 3.35181 -180 7.01551e-015 178.94 178.321 9.0714 179.73 -7.80079e-007 -1.62304e-006 0.01372 -17.1326 67.8583 19.414 8.13654 25.2334 -3.4867 -172.581 0.614115 -1.84648 4.5067e-006 -1.99009e-005 -0.945067 -0.792049 -12.6071 0.53765 -6.42456e-007 1.24004e-006 -0.167421 19.2505 71.2178 -22.4393 -8.13664 25.2349 3.4848 
